<?xml version="1.0" encoding="UTF-8"?>
<svg version="1.1" xmlns="http://www.w3.org/2000/svg" width="600" height="600">
<path d="M0 0 C198 0 396 0 600 0 C600 198 600 396 600 600 C402 600 204 600 0 600 C0 402 0 204 0 0 Z " fill="#FEFEFE" transform="translate(0,0)"/>
<path d="M0 0 C-3.00804802 2.35029997 -6.11873676 4.31297356 -9.41796875 6.23046875 C-11.03360718 7.17539185 -11.03360718 7.17539185 -12.68188477 8.1394043 C-13.53811935 8.63916275 -13.53811935 8.63916275 -14.41165161 9.14901733 C-34.19421575 20.71748797 -53.58058936 32.83309659 -71.98730469 46.50927734 C-73.96424262 47.97351594 -75.95230517 49.42101259 -77.9453125 50.86328125 C-100.09431115 66.91609606 -121.14749097 84.35825074 -141.02636719 103.14404297 C-143.09330848 105.08774506 -145.17388951 107.01592951 -147.2578125 108.94140625 C-147.96631348 109.59842529 -148.67481445 110.25544434 -149.40478516 110.93237305 C-150.7533966 112.18276938 -152.10444562 113.43054445 -153.45849609 114.67504883 C-157.38303073 118.32768162 -160.96454355 122.15054711 -164.45507812 126.21923828 C-166.21386089 128.2465078 -168.06959535 130.13616103 -170 132 C-173.11681543 135.08119468 -176.05687238 138.24471634 -178.91015625 141.5703125 C-180.54900879 143.47567003 -182.20338988 145.36230894 -183.87109375 147.2421875 C-192.04157488 156.49589531 -199.61015181 166.11568829 -207 176 C-208.12614517 177.50141979 -209.25244308 179.00272503 -210.37890625 180.50390625 C-211.2526555 181.66923234 -212.12637314 182.83458215 -213 184 C-212.13503906 183.62488281 -211.27007812 183.24976563 -210.37890625 182.86328125 C-179.9937787 170.27273595 -143.32908095 168.18061552 -112.46191406 180.58105469 C-110.62972676 181.36077038 -108.81459975 182.18018624 -107 183 C-106.38979004 183.27215332 -105.77958008 183.54430664 -105.15087891 183.82470703 C-88.13952581 191.50652945 -70.16224345 204.71077324 -59 220 C-58.26953125 222.28125 -58.26953125 222.28125 -58 224 C-58.79019531 224.55945313 -59.58039063 225.11890625 -60.39453125 225.6953125 C-70.68849079 233.00560555 -80.85187277 240.48901844 -91 248 C-94.60820758 246.31736483 -96.71728809 244.36872329 -99.4375 241.4375 C-114.48917417 226.12020805 -132.37778931 218.78368933 -153.75 218.5625 C-175.09087671 218.69922657 -194.43696698 224.83347738 -210 240 C-221.81130787 252.12010023 -227.7866571 266.62465933 -231 283 C-231.19207031 283.9384375 -231.38414062 284.876875 -231.58203125 285.84375 C-234.63802382 308.92077799 -230.26248598 334.20605208 -216 353 C-213.14269907 356.48661765 -210.15552677 359.78181837 -207 363 C-206.47148437 363.55300781 -205.94296875 364.10601562 -205.3984375 364.67578125 C-190.78819422 378.57424344 -171.23524859 381.62855242 -151.94384766 381.47094727 C-136.98876226 381.07573717 -120.95357732 378.08839058 -110 367 C-109.34 367 -108.68 367 -108 367 C-107.72027344 366.41605469 -107.44054687 365.83210938 -107.15234375 365.23046875 C-106.0729595 363.14121992 -104.87393551 361.26126866 -103.5625 359.3125 C-98.82863232 351.75786161 -97.90462836 345.04628361 -97 336 C-116.14 336 -135.28 336 -155 336 C-155 322.14 -155 308.28 -155 294 C-118.37 294 -81.74 294 -44 294 C-44 319.81781648 -44 319.81781648 -45.125 327.625 C-45.25624268 328.56609619 -45.38748535 329.50719238 -45.52270508 330.47680664 C-47.94676259 346.430612 -53.06419969 360.98274467 -61 375 C-61.55429687 375.99386719 -62.10859375 376.98773438 -62.6796875 378.01171875 C-67.18535656 385.56787667 -72.93116422 391.70115003 -79 398 C-79.98613281 399.09828125 -79.98613281 399.09828125 -80.9921875 400.21875 C-96.50338069 416.99480443 -122.81785794 427.12085952 -145.3293457 428.15258789 C-183.96571614 429.3726838 -218.43689947 421.28448335 -247.5234375 394.4140625 C-269.52293856 372.9697539 -280.44565567 347.76475109 -286 318 C-286.36351562 319.12535156 -286.36351562 319.12535156 -286.734375 320.2734375 C-287.06953125 321.29695313 -287.4046875 322.32046875 -287.75 323.375 C-288.07484375 324.37273437 -288.3996875 325.37046875 -288.734375 326.3984375 C-289.70301698 329.15488166 -290.7352636 331.82783053 -291.84375 334.52734375 C-303.28971334 362.90268544 -310.36183586 393.08206669 -316.375 423 C-316.54453186 423.84053925 -316.71406372 424.68107849 -316.88873291 425.54708862 C-318.7660178 434.91638834 -320.39298105 444.24700852 -321.57958984 453.73095703 C-322.12775781 457.99342452 -322.84621085 462.21218355 -323.625 466.4375 C-324.07875 468.933125 -324.5325 471.42875 -325 474 C-332.26 474 -339.52 474 -347 474 C-347.37914551 472.50339844 -347.75829102 471.00679687 -348.14892578 469.46484375 C-353.18449024 449.74236285 -358.64571622 430.14746335 -364.15716553 410.55377197 C-365.12865039 407.09761193 -366.09754244 403.64072728 -367.06637383 400.18382263 C-368.22814738 396.03893501 -369.39134847 391.89444846 -370.5546875 387.75 C-370.77394772 386.96843536 -370.99320793 386.18687073 -371.2191124 385.38162231 C-371.83522349 383.18648276 -372.45235079 380.99163168 -373.06982422 378.796875 C-373.41955292 377.55260742 -373.76928162 376.30833984 -374.12960815 375.02636719 C-374.71096219 373.00498937 -375.33487288 370.99538135 -376 369 C-376.12375 369.62003906 -376.2475 370.24007813 -376.375 370.87890625 C-379.786181 385.52566467 -387.38108457 396.68493908 -398 407 C-398.6290625 407.61488281 -399.258125 408.22976563 -399.90625 408.86328125 C-416.74957013 424.23678335 -439.11730615 428.17651755 -461.09960938 428.24023438 C-463.10038217 428.2498813 -465.10101353 428.28105719 -467.1015625 428.3125 C-489.07120507 428.39899466 -511.56705083 421.97582348 -527.875 406.625 C-532.03484269 402.12470983 -535.50448658 397.02082836 -539 392 C-537.47920927 388.49172085 -535.4004327 386.04728354 -532.8125 383.25 C-531.60013672 381.92742187 -531.60013672 381.92742187 -530.36328125 380.578125 C-529.58339844 379.72734375 -528.80351563 378.8765625 -528 378 C-526.82838939 376.67100886 -525.66126608 375.3380396 -524.5 374 C-523.94828125 373.3709375 -523.3965625 372.741875 -522.828125 372.09375 C-521.43404251 370.49710851 -520.05053422 368.89122788 -518.671875 367.28125 C-517.87265625 366.3634375 -517.0734375 365.445625 -516.25 364.5 C-515.51265625 363.6440625 -514.7753125 362.788125 -514.015625 361.90625 C-512 360 -512 360 -509 360 C-507.31640625 362.01171875 -507.31640625 362.01171875 -505.5625 364.6875 C-498.69810777 375.05319296 -490.67644236 381.71161347 -478.55859375 385.3359375 C-465.72471678 387.73084319 -452.71448261 387.10631467 -441 381 C-439.32409692 379.67829488 -437.65537273 378.34732946 -436 377 C-435.34 377 -434.68 377 -434 377 C-433.56880859 376.13375 -433.56880859 376.13375 -433.12890625 375.25 C-432.41597685 373.82907497 -431.69558512 372.41184749 -430.96484375 371 C-430.62582031 370.34 -430.28679687 369.68 -429.9375 369 C-429.59589844 368.34 -429.25429688 367.68 -428.90234375 367 C-426.07604085 360.73564033 -426.14390863 353.80607727 -428.125 347.3125 C-437.67664937 330.43791945 -458.30833394 322.91067216 -474.83544922 314.56884766 C-499.67724508 302.00482646 -523.88312361 287.6327679 -534.03515625 260.203125 C-538.85583193 243.96977991 -536.735839 225.72362166 -528.78125 210.90625 C-517.20163646 192.01319633 -499.1041501 180.43353118 -478 175 C-477.04609375 174.70222656 -476.0921875 174.40445313 -475.109375 174.09765625 C-467.84395458 172.03404862 -460.81611486 171.71859068 -453.3125 171.6875 C-451.86931396 171.67928223 -451.86931396 171.67928223 -450.39697266 171.67089844 C-427.80071725 171.8957368 -407.60433304 181.10828099 -391.36328125 196.484375 C-389.32917555 198.64960487 -388.08965606 200.27267371 -387 203 C-387.54527344 203.59425781 -388.09054687 204.18851563 -388.65234375 204.80078125 C-393.53860902 210.17149675 -398.21460609 215.66070154 -402.78125 221.3046875 C-406.0742501 225.30498692 -409.52128406 229.16109003 -413 233 C-416.44140914 231.85286362 -416.72354602 231.23139865 -418.625 228.3125 C-422.05901159 223.58439045 -425.92065337 220.80985133 -431 218 C-431.71542969 217.58492187 -432.43085938 217.16984375 -433.16796875 216.7421875 C-442.35131191 212.22164336 -454.78635631 212.57004539 -464.5625 215.125 C-472.99670508 218.25147257 -479.08908399 222.81151959 -483 231 C-484.86320549 236.58961646 -485.04897398 242.93774859 -483.12890625 248.54296875 C-474.10948359 265.72422961 -453.95031255 272.59909096 -437.28955078 280.24365234 C-420.99006266 287.74760034 -407.50019496 296.15466765 -394 308 C-394 304.46253337 -394.81529619 301.33700551 -395.6875 297.9375 C-395.86611572 297.23286621 -396.04473145 296.52823242 -396.22875977 295.80224609 C-398.15139542 288.28851655 -400.23883645 280.82190885 -402.34130859 273.35693359 C-403.03573717 270.87212503 -403.71656317 268.38387886 -404.39453125 265.89453125 C-404.62148682 265.0648584 -404.84844238 264.23518555 -405.08227539 263.38037109 C-405.52012347 261.77850349 -405.95559224 260.17598321 -406.38842773 258.57275391 C-407.13353095 254.99698029 -407.13353095 254.99698029 -409 252 C-409.04063832 250.33382885 -409.042721 248.66611905 -409 247 C-400.95625589 248.58602954 -392.99556217 250.49604964 -385.04370117 252.48828125 C-382.97607782 252.99531456 -380.9032932 253.48175321 -378.82592773 253.94726562 C-361.52845122 257.84389712 -361.52845122 257.84389712 -357.84423828 263.04101562 C-356.82177634 266.40421111 -356.33997319 269.50811322 -356 273 C-355.30375938 275.27609037 -355.30375938 275.27609037 -354.43359375 277.26953125 C-352.8562678 281.37401704 -351.44504744 285.51443151 -350.0625 289.6875 C-349.80235107 290.46988037 -349.54220215 291.25226074 -349.27416992 292.05834961 C-347.39090688 297.75005371 -345.6004227 303.4662301 -343.859375 309.203125 C-343.12707977 311.5864131 -342.36150531 313.9509954 -341.5625 316.3125 C-340.13918755 320.52021603 -338.81826073 324.75849123 -337.5 329 C-334.36279383 339.74148768 -334.36279383 339.74148768 -330 350 C-329.68248779 349.01193359 -329.36497559 348.02386719 -329.0378418 347.00585938 C-327.84886492 343.30764167 -326.65734335 339.61024784 -325.46508789 335.91308594 C-324.95138239 334.31890536 -324.43834885 332.72450807 -323.92602539 331.12988281 C-323.18556431 328.82558525 -322.4426155 326.52210192 -321.69921875 324.21875 C-321.47409103 323.51633179 -321.24896332 322.81391357 -321.01701355 322.09020996 C-309.58532615 286.75090835 -293.35276666 252.63608507 -274 221 C-273.10795275 219.5209058 -272.21601688 218.04174442 -271.32421875 216.5625 C-251.26767126 183.61414577 -226.20702417 154.20743062 -199.0625 126.9375 C-198.03443237 125.9024231 -198.03443237 125.9024231 -196.9855957 124.84643555 C-192.48624537 120.36127359 -187.81678377 116.14004054 -183 112 C-181.82056123 110.96604408 -180.6421455 109.9309198 -179.46484375 108.89453125 C-170.83908362 101.3415364 -162.07173401 94.01241023 -153 87 C-152.34741211 86.49484863 -151.69482422 85.98969727 -151.02246094 85.46923828 C-127.28529229 67.24105658 -101.87062719 51.0041498 -76 36 C-74.68878174 35.23284668 -74.68878174 35.23284668 -73.35107422 34.45019531 C-59.17759431 26.16283711 -44.74379332 18.36212822 -30.22265625 10.70507812 C-27.31692606 9.1676827 -24.42336815 7.60965633 -21.53125 6.046875 C-19.95913454 5.21723 -18.3862829 4.38897761 -16.8125 3.5625 C-16.13743408 3.1910083 -15.46236816 2.8195166 -14.7668457 2.43676758 C-9.78025523 -0.12857367 -5.56059744 -0.41109475 0 0 Z " fill="#020202" transform="translate(569,63)"/>
<path d="M0 0 C0.66 0.33 1.32 0.66 2 1 C-11.53 14.53 -25.06 28.06 -39 42 C-39.66 41.67 -40.32 41.34 -41 41 C-40.07058594 40.0821875 -39.14117187 39.164375 -38.18359375 38.21875 C-30.56571451 30.7761822 -30.56571451 30.7761822 -23.4375 22.875 C-19.4111948 18.1110511 -14.71824047 14.04509452 -10.11328125 9.85546875 C-6.62758579 6.67891189 -3.29607408 3.37272697 0 0 Z " fill="#E0E0E0" transform="translate(435,158)"/>
</svg>
